<?xml version="1.0" standalone="no"?>
<svg xmlns:xlink="http://www.w3.org/1999/xlink" id="wave" style="transform:rotate(0deg); transition: 0.3s" viewBox="0 0 1440 490" version="1.1" xmlns="http://www.w3.org/2000/svg"><defs><linearGradient id="sw-gradient-0" x1="0" x2="0" y1="1" y2="0"><stop stop-color="rgba(120.119, 62, 243, 1)" offset="0%"/><stop stop-color="rgba(11, 255, 255, 1)" offset="100%"/></linearGradient></defs><path style="transform:translate(0, 0px); opacity:1" fill="url(#sw-gradient-0)" d="M0,0L48,8.2C96,16,192,33,288,89.8C384,147,480,245,576,261.3C672,278,768,212,864,220.5C960,229,1056,310,1152,294C1248,278,1344,163,1440,147C1536,131,1632,212,1728,261.3C1824,310,1920,327,2016,310.3C2112,294,2208,245,2304,253.2C2400,261,2496,327,2592,343C2688,359,2784,327,2880,261.3C2976,196,3072,98,3168,122.5C3264,147,3360,294,3456,359.3C3552,425,3648,408,3744,392C3840,376,3936,359,4032,351.2C4128,343,4224,343,4320,351.2C4416,359,4512,376,4608,318.5C4704,261,4800,131,4896,138.8C4992,147,5088,294,5184,343C5280,392,5376,343,5472,343C5568,343,5664,392,5760,416.5C5856,441,5952,441,6048,375.7C6144,310,6240,180,6336,122.5C6432,65,6528,82,6624,114.3C6720,147,6816,196,6864,220.5L6912,245L6912,490L6864,490C6816,490,6720,490,6624,490C6528,490,6432,490,6336,490C6240,490,6144,490,6048,490C5952,490,5856,490,5760,490C5664,490,5568,490,5472,490C5376,490,5280,490,5184,490C5088,490,4992,490,4896,490C4800,490,4704,490,4608,490C4512,490,4416,490,4320,490C4224,490,4128,490,4032,490C3936,490,3840,490,3744,490C3648,490,3552,490,3456,490C3360,490,3264,490,3168,490C3072,490,2976,490,2880,490C2784,490,2688,490,2592,490C2496,490,2400,490,2304,490C2208,490,2112,490,2016,490C1920,490,1824,490,1728,490C1632,490,1536,490,1440,490C1344,490,1248,490,1152,490C1056,490,960,490,864,490C768,490,672,490,576,490C480,490,384,490,288,490C192,490,96,490,48,490L0,490Z"/><defs><linearGradient id="sw-gradient-1" x1="0" x2="0" y1="1" y2="0"><stop stop-color="rgba(23.023, 132.807, 246.213, 1)" offset="0%"/><stop stop-color="rgba(0, 255, 142.706, 1)" offset="100%"/></linearGradient></defs><path style="transform:translate(0, 50px); opacity:0.9" fill="url(#sw-gradient-1)" d="M0,441L48,441C96,441,192,441,288,408.3C384,376,480,310,576,294C672,278,768,310,864,310.3C960,310,1056,278,1152,261.3C1248,245,1344,245,1440,261.3C1536,278,1632,310,1728,277.7C1824,245,1920,147,2016,147C2112,147,2208,245,2304,310.3C2400,376,2496,408,2592,416.5C2688,425,2784,408,2880,383.8C2976,359,3072,327,3168,334.8C3264,343,3360,392,3456,359.3C3552,327,3648,212,3744,163.3C3840,114,3936,131,4032,163.3C4128,196,4224,245,4320,269.5C4416,294,4512,294,4608,261.3C4704,229,4800,163,4896,147C4992,131,5088,163,5184,196C5280,229,5376,261,5472,228.7C5568,196,5664,98,5760,106.2C5856,114,5952,229,6048,302.2C6144,376,6240,408,6336,400.2C6432,392,6528,343,6624,343C6720,343,6816,392,6864,416.5L6912,441L6912,490L6864,490C6816,490,6720,490,6624,490C6528,490,6432,490,6336,490C6240,490,6144,490,6048,490C5952,490,5856,490,5760,490C5664,490,5568,490,5472,490C5376,490,5280,490,5184,490C5088,490,4992,490,4896,490C4800,490,4704,490,4608,490C4512,490,4416,490,4320,490C4224,490,4128,490,4032,490C3936,490,3840,490,3744,490C3648,490,3552,490,3456,490C3360,490,3264,490,3168,490C3072,490,2976,490,2880,490C2784,490,2688,490,2592,490C2496,490,2400,490,2304,490C2208,490,2112,490,2016,490C1920,490,1824,490,1728,490C1632,490,1536,490,1440,490C1344,490,1248,490,1152,490C1056,490,960,490,864,490C768,490,672,490,576,490C480,490,384,490,288,490C192,490,96,490,48,490L0,490Z"/></svg>